<svg width="14" height="15" viewBox="0 0 14 15" fill="none" xmlns="http://www.w3.org/2000/svg">
<path opacity="0.5" d="M14 7.5C14 11.366 10.866 14.5 7 14.5C3.13401 14.5 0 11.366 0 7.5C0 3.63401 3.13401 0.5 7 0.5C10.866 0.5 14 3.63401 14 7.5Z" fill="#4E5F6F"/>
<path d="M4.87887 5.37887C5.08389 5.17384 5.4163 5.17384 5.62133 5.37887L7.0001 6.75764L8.37887 5.37888C8.58389 5.17386 8.9163 5.17386 9.12133 5.37888C9.32635 5.58391 9.32635 5.91632 9.12133 6.12134L7.74257 7.5001L9.12131 8.87885C9.32634 9.08388 9.32634 9.41629 9.12131 9.62132C8.91629 9.82634 8.58388 9.82634 8.37885 9.62132L7.0001 8.24257L5.62134 9.62133C5.41632 9.82635 5.08391 9.82635 4.87888 9.62133C4.67386 9.4163 4.67386 9.08389 4.87888 8.87887L6.25764 7.5001L4.87887 6.12133C4.67384 5.9163 4.67384 5.58389 4.87887 5.37887Z" fill="#4E5F6F"/>
</svg>
