<svg width="14" height="15" viewBox="0 0 14 15" fill="none" xmlns="http://www.w3.org/2000/svg">
<path opacity="0.5" d="M14 7.5C14 11.366 10.866 14.5 7 14.5C3.13401 14.5 0 11.366 0 7.5C0 3.63401 3.13401 0.5 7 0.5C10.866 0.5 14 3.63401 14 7.5Z" fill="#3656DE"/>
<path d="M7.525 5.4C7.525 5.11005 7.28995 4.875 7 4.875C6.71005 4.875 6.475 5.11005 6.475 5.4L6.475 6.97502H4.9C4.61005 6.97502 4.375 7.21007 4.375 7.50002C4.375 7.78997 4.61005 8.02502 4.9 8.02502H6.475V9.6C6.475 9.88995 6.71005 10.125 7 10.125C7.28995 10.125 7.525 9.88995 7.525 9.6L7.525 8.02502H9.1C9.38995 8.02502 9.625 7.78997 9.625 7.50002C9.625 7.21007 9.38995 6.97502 9.1 6.97502H7.525V5.4Z" fill="#3656DE"/>
</svg>
