<svg width="14" height="14" viewBox="0 0 14 14" fill="none" xmlns="http://www.w3.org/2000/svg">
<path fill-rule="evenodd" clip-rule="evenodd" d="M6.67442 0.976744C3.52768 0.976744 0.976744 3.52768 0.976744 6.67442C0.976744 9.82116 3.52768 12.3721 6.67442 12.3721C9.82116 12.3721 12.3721 9.82116 12.3721 6.67442C12.3721 3.52768 9.82116 0.976744 6.67442 0.976744ZM0 6.67442C0 2.98824 2.98824 0 6.67442 0C10.3606 0 13.3488 2.98824 13.3488 6.67442C13.3488 8.34173 12.7375 9.86625 11.7267 11.036L13.857 13.1663C14.0477 13.357 14.0477 13.6662 13.857 13.857C13.6662 14.0477 13.357 14.0477 13.1663 13.857L11.036 11.7267C9.86625 12.7375 8.34173 13.3488 6.67442 13.3488C2.98824 13.3488 0 10.3606 0 6.67442Z" fill="#4E5F6F"/>
</svg>
