<svg width="12" height="14" viewBox="0 0 12 14" fill="none" xmlns="http://www.w3.org/2000/svg">
<path d="M0 3.16667C0 2.89052 0.217806 2.66667 0.486484 2.66667H3.67858C3.68292 2.07781 3.7437 1.27053 4.30025 0.711677C4.73824 0.27187 5.33872 0 5.99999 0C6.66127 0 7.26174 0.27187 7.69974 0.711676C8.25629 1.27053 8.31707 2.07781 8.32141 2.66667H11.5135C11.7822 2.66667 12 2.89052 12 3.16667C12 3.44281 11.7822 3.66667 11.5135 3.66667H0.486484C0.217806 3.66667 0 3.44281 0 3.16667Z" fill="#8398AB"/>
<path d="M5.7377 14H6.26233C8.06732 14 8.96982 14 9.55661 13.3958C10.1434 12.7915 10.2034 11.8003 10.3235 9.818L10.4965 6.96164C10.5617 5.88605 10.5942 5.34826 10.2999 5.00746C10.0055 4.66667 9.50837 4.66667 8.51414 4.66667H3.48589C2.49166 4.66667 1.99455 4.66667 1.70018 5.00746C1.4058 5.34826 1.43838 5.88605 1.50352 6.96164L1.67653 9.818C1.79659 11.8003 1.85663 12.7915 2.44342 13.3958C3.03021 14 3.93271 14 5.7377 14Z" fill="#8398AB"/>
</svg>
